<?xml version="1.0" encoding="utf-8"?>
<!-- Generator: Adobe Illustrator 20.0.0, SVG Export Plug-In . SVG Version: 6.00 Build 0)  -->
<svg version="1.1" id="Layer_1" xmlns="http://www.w3.org/2000/svg" xmlns:xlink="http://www.w3.org/1999/xlink" x="0px" y="0px"
	 viewBox="0 0 800 540" style="enable-background:new 0 0 800 540;" xml:space="preserve">
<style type="text/css">
	.st0{fill:#FFFFFF;}
</style>
<g>
	<path d="M370.1,160.7h20.4v68.9c8.7-11.7,19.9-15.5,29.1-15.5c24,0,28.3,18.2,28.3,31.3v76.8c0,13.1-4.4,31.3-28.3,31.3
		c-9.3,0-20.4-3.8-29.1-15.5v13.3h-20.4V160.7z M427.6,312.7v-57.7c0-10.3-4.1-21-17.2-21c-16.6,0-19.9,16.3-19.9,24.8v50.1
		c0,8.4,3.3,24.8,19.9,24.8C423.5,333.6,427.6,323,427.6,312.7z"/>
	<path d="M496.7,164.5v19.9h-20.4v-19.9H496.7z M476.3,216.3h20.4v135.1h-20.4V216.3z"/>
	<path d="M559.9,175.1v41.1h19.1v16.3h-19.1v82c0,3.3,0.3,10.6,5.4,15c3.8,3.3,9.5,3.3,12.8,3.3h2.2v18.5h-6
		c-7.6,0-20.4-0.3-27.8-8.4c-6.8-7.4-7.1-18-7.1-25.9v-84.4H525v-16.3h14.4v-41.1H559.9z"/>
	<g>
		<path class="st0" d="M325.7,271.4L325.7,271.4c-1-2.2-2.1-4.3-3.3-6.3c-5.2-8.6-12.3-15.9-20.8-21.2c-1.8-1.1-3.6-2.2-5.5-3.1
			l-0.4,1.1l0.4-1.1c-8.7-4.4-18.6-6.9-29-6.9h-3.1c-10.4,0-20.3,2.5-29,6.9l0.4,1.1c2.7,7.8,8.5,14.2,16,17.6l6.3,2.9
			c2.1-0.4,4.2-0.6,6.3-0.6h3.1c2.2,0,4.3,0.2,6.3,0.6l0,0c3.1,0.5,6.1,1.5,8.9,2.8c9,4.1,16,11.8,19.3,21.2c0.7,2,1.2,4.2,1.6,6.4
			h0c0.3,1.8,0.4,3.7,0.4,5.6v75.8c0,20.1-16.4,36.5-36.5,36.5h-3.1c-20.1,0-36.5-16.4-36.5-36.5v-75.8c0-1.9,0.2-3.8,0.4-5.6
			l-1.8-1.1c-8.2-5.2-15.3-12.2-20.8-20.2c-3.8,8.2-5.9,17.3-5.9,26.9v75.8c0,35.6,28.9,64.5,64.5,64.5h3.1
			c35.6,0,64.5-28.9,64.5-64.5v-75.8C331.5,288.7,329.4,279.6,325.7,271.4z"/>
	</g>
	<path class="st0" d="M267.1,91.6h-3.1c-35.6,0-64.5,28.9-64.5,64.5v75.8c0,9.6,2.1,18.7,5.9,26.9c1,2.2,2.1,4.3,3.3,6.3
		c5.2,8.6,12.3,15.9,20.8,21.2c1.8,1.1,3.6,2.2,5.5,3.1c8.7,4.4,18.6,6.9,29,6.9h3.1c10.4,0,20.3-2.5,29-6.9l-0.4-1.1
		c-2.7-7.8-8.5-14.2-16-17.6l-6.3-2.9c-2.1,0.4-4.2,0.6-6.3,0.6h-3.1c-2.2,0-4.3-0.2-6.3-0.6c-3.1-0.5-6.1-1.5-8.9-2.8
		c-9-4.1-16-11.8-19.3-21.2c-0.7-2-1.2-4.2-1.6-6.4c-0.3-1.8-0.4-3.7-0.4-5.6v-75.8c0-20.1,16.4-36.5,36.5-36.5h3.1
		c20.1,0,36.5,16.4,36.5,36.5v75.8c0,1.9-0.2,3.8-0.4,5.6l1.8,1.1c8.2,5.2,15.3,12.2,20.8,20.2c3.8-8.2,5.9-17.3,5.9-26.9v-75.8
		C331.5,120.5,302.6,91.6,267.1,91.6z"/>
</g>
</svg>
